<?xml version="1.0" standalone="no"?>
<!DOCTYPE svg PUBLIC "-//W3C//DTD SVG 20010904//EN"
 "http://www.w3.org/TR/2001/REC-SVG-20010904/DTD/svg10.dtd">
<svg version="1.0" xmlns="http://www.w3.org/2000/svg"
 width="24" height="25" viewBox="0 0 1280.000000 640.000000"
 preserveAspectRatio="xMidYMid meet">
<g transform="translate(0.000000,640.000000) scale(0.100000,-0.100000)"
fill="#000000" stroke="none">
<path d="M2765 5814 c-433 -21 -807 -116 -1177 -301 -838 -419 -1422 -1227
-1547 -2143 -43 -320 -49 -425 -32 -562 6 -40 15 -120 22 -178 55 -498 260
-1005 569 -1405 163 -211 422 -468 635 -630 359 -273 780 -457 1225 -534 418
-73 877 -50 1268 64 689 201 1295 691 1737 1403 31 50 61 92 66 92 5 0 107
-24 227 -54 479 -121 972 -228 1217 -266 150 -23 287 -26 303 -7 5 6 76 149
156 317 81 168 151 309 155 313 5 5 61 -3 125 -17 63 -14 124 -26 135 -26 14
0 110 104 313 339 161 187 298 342 305 345 6 2 139 -17 295 -43 271 -46 286
-50 343 -85 38 -23 67 -35 80 -32 11 3 56 6 101 6 l80 0 145 105 c132 97 147
105 179 101 19 -3 107 -13 195 -21 88 -8 180 -18 204 -21 40 -5 58 -20 243
-197 112 -108 209 -193 221 -195 12 -1 123 21 247 49 124 28 522 111 885 183
l660 132 223 297 223 298 -198 411 c-171 356 -201 413 -223 418 -15 4 -33 21
-47 45 -20 36 -27 41 -70 47 -26 3 -626 7 -1333 9 -707 1 -1861 5 -2565 8
l-1280 6 -1 160 c-2 160 -12 232 -39 285 -21 41 -91 97 -127 102 -123 18 -582
-128 -1203 -382 -189 -78 -200 -81 -213 -64 -7 11 -43 71 -80 134 -133 226
-269 396 -501 627 -394 392 -815 640 -1314 773 -246 65 -593 105 -832 94z
m-540 -2094 c97 -31 153 -61 212 -114 106 -95 207 -265 249 -416 26 -92 26
-347 1 -440 -45 -161 -166 -351 -285 -445 -280 -223 -646 -244 -938 -54 -159
104 -231 204 -286 395 -32 111 -32 341 0 457 88 319 338 561 652 632 97 22
304 14 395 -15z"/>
</g>
</svg>
