<svg width="25" height="24" viewBox="0 0 25 24" fill="none" xmlns="http://www.w3.org/2000/svg">
<path d="M19.0051 22.5C18.8472 22.5006 18.6932 22.4514 18.5649 22.3594L12.5364 17.9887L6.50776 22.3594C6.37897 22.4528 6.2238 22.5028 6.06469 22.5022C5.90558 22.5017 5.75078 22.4505 5.62267 22.3561C5.49455 22.2618 5.39976 22.1291 5.352 21.9774C5.30424 21.8256 5.30599 21.6626 5.35698 21.5119L7.70823 14.5477L1.61448 10.3687C1.48249 10.2783 1.38287 10.1481 1.33017 9.997C1.27748 9.84594 1.27448 9.68198 1.3216 9.52908C1.36873 9.37619 1.46351 9.24237 1.59211 9.14718C1.7207 9.05199 1.87637 9.00042 2.03636 9H9.55417L11.8229 2.01797C11.8718 1.86723 11.9672 1.73584 12.0953 1.64266C12.2235 1.54947 12.3779 1.49928 12.5364 1.49928C12.6948 1.49928 12.8492 1.54947 12.9774 1.64266C13.1056 1.73584 13.2009 1.86723 13.2498 2.01797L15.5185 9.00234H23.0363C23.1965 9.00226 23.3526 9.05348 23.4815 9.14848C23.6105 9.24349 23.7057 9.3773 23.7531 9.53031C23.8005 9.68332 23.7977 9.8475 23.7451 9.9988C23.6924 10.1501 23.5927 10.2806 23.4606 10.3711L17.3645 14.5477L19.7143 21.51C19.7524 21.6227 19.7631 21.7429 19.7456 21.8606C19.728 21.9782 19.6827 22.09 19.6135 22.1868C19.5442 22.2835 19.4529 22.3623 19.3471 22.4168C19.2413 22.4713 19.1241 22.4998 19.0051 22.5Z" fill="#12805D"/>
</svg>
